# https://github.com/mikedh/trimesh
v -0.15656803 0.84196516 -0.23880810
v -0.40658663 0.88383345 -0.52858789
v -0.18455100 0.78399960 -0.52387876
v -0.16662280 -0.06184649 -0.58450116
v -0.27704151 0.82253616 -0.39653612
v -0.32155492 0.78318144 -0.19811269
v -0.41710465 0.83418815 -0.58386597
v -0.13974894 0.82892185 -0.22292866
v -0.16812626 0.79949789 -0.46387264
v -0.28547094 0.82261881 -0.36615284
v -0.18317461 0.81165012 -0.44058175
v -0.17043961 -0.06600755 -0.55095687
v -0.40439507 0.81299077 -0.47194563
v -0.35706697 0.81915447 -0.48302276
v -0.19476631 -0.04867669 -0.64244509
v -0.21105314 0.82578960 -0.52689247
v -0.24072536 0.80952921 -0.31910730
v -0.38749779 0.77403208 -0.33451427
v -0.41849354 0.76359826 -0.44536518
v -0.26855637 0.80934951 -0.22657003
v -0.24903335 0.80816588 -0.24316070
v -0.34039496 0.84379542 -0.55006537
v -0.40017131 0.85491113 -0.54093242
v -0.13670355 0.79871068 -0.32882055
v -0.31867696 0.82690686 -0.45652933
v -0.24404109 0.90095752 -0.57190695
v -0.13264475 0.81434633 -0.25502156
v -0.31895139 0.80164310 -0.17339822
v -0.37036577 0.84825339 -0.58500091
v -0.16714155 0.82327685 -0.26517758
v -0.35459693 0.84146541 -0.52306907
v -0.35368318 0.82577300 -0.61734791
v -0.16723811 0.79939874 -0.28075375
v -0.21980820 0.75479400 -0.21365170
v -0.13533399 0.81208102 -0.28802383
v -0.29887596 0.83674360 -0.51766341
v -0.18607297 -0.02564600 -0.61849913
v -0.23140527 0.85191771 -0.59668524
v -0.19095602 -0.00808863 -0.62985338
v -0.40707110 0.85758047 -0.56536635
v -0.21359897 0.83854610 -0.54346023
v -0.14812911 -0.06903595 -0.48170721
v -0.26924519 0.81108698 -0.42242568
v -0.32075428 0.84028521 -0.49012469
v -0.25276140 0.84071945 -0.59172428
v -0.16262601 0.81164321 -0.33981660
v -0.23236433 0.85398569 -0.62266334
v -0.31418362 0.78963723 -0.23423355
v -0.34707580 0.75979596 -0.21332630
v -0.32944738 0.83835167 -0.48954172
v -0.29645769 0.83140020 -0.40555198
v -0.29679611 0.80126425 -0.26812559
v -0.28025995 0.79714114 -0.21811055
v -0.15962610 0.80291812 -0.36080250
v -0.14989078 0.79730150 -0.36734832
v -0.23840339 0.86469952 -0.56485503
v -0.38745374 0.79868015 -0.60842558
v -0.41378891 0.78524135 -0.42508272
v -0.26778343 0.82296816 -0.40732398
v -0.14816121 -0.02735302 -0.48922547
v -0.43943250 0.81939229 -0.57329445
v -0.30545249 0.80833003 -0.29402830
v -0.44243492 0.81073745 -0.55449494
v -0.14660940 -0.03815256 -0.53969485
v -0.31132686 0.79796449 -0.31718112
v -0.29163506 0.81524705 -0.30393941
v -0.29315521 0.81498616 -0.36199015
v -0.13799583 0.84886602 -0.23346711
v -0.35077462 0.79962642 -0.28648829
v -0.22669145 0.79689161 -0.22506781
v -0.24880065 0.80015287 -0.22816963
v -0.19805166 0.80781094 -0.30791347
v -0.12748227 0.81466096 -0.23027170
v -0.34506743 0.79007005 -0.23044133
v -0.19648414 0.81550670 -0.54609368
v -0.19907521 0.82126711 -0.53122132
v -0.19218081 -0.03296382 -0.61992248
v -0.21236193 0.80091821 -0.24526407
v -0.21982742 0.82988091 -0.61341649
v -0.34354831 0.82742169 -0.62115947
v -0.34394260 0.78820052 -0.20802031
v -0.25590231 0.88079917 -0.57065559
v -0.23768758 0.80968849 -0.24301824
v -0.22848254 0.87407960 -0.57195788
v -0.32679039 0.83834206 -0.20921818
v -0.43077412 0.83532471 -0.54204284
v -0.37598991 0.82957620 -0.51983709
v -0.36209159 0.83219008 -0.49900677
v -0.23073923 0.80707624 -0.25372502
v -0.37694172 0.83843311 -0.57453314
v -0.15550167 -0.05371774 -0.59131141
v -0.42230324 0.82534286 -0.51268885
v -0.14789775 0.80032107 -0.25542054
v -0.31877650 0.84724137 -0.59030640
v -0.39892718 0.79478289 -0.39684469
v -0.37067244 0.83540310 -0.52089329
v -0.13326869 -0.04939667 -0.50770244
v -0.23656975 0.88727230 -0.60562674
v -0.37745641 0.84755133 -0.56832060
v -0.36836046 0.77810185 -0.28153829
v -0.35829366 0.85297661 -0.56700679
v -0.33701412 0.85400443 -0.56751900
v -0.31424697 0.79930042 -0.19144648
v -0.38502019 0.80121880 -0.39708945
v -0.14478048 0.78833852 -0.37970868
v -0.31263569 0.84300270 -0.19041773
v -0.12677868 0.84605088 -0.25202271
v -0.26496386 0.84600949 -0.61922060
v -0.26922421 0.84117222 -0.55563690
v -0.33115697 0.83345001 -0.44746883
v -0.28132730 0.81417415 -0.35449541
v -0.35135677 0.84749025 -0.60033706
v -0.32197819 0.85153467 -0.58523385
v -0.28716012 0.83097037 -0.41739218
v -0.40636236 0.82475907 -0.48697697
v -0.30374118 0.82259118 -0.17870079
v -0.12254111 0.77861597 -0.27499322
v -0.32981956 0.85038952 -0.57474959
v -0.31571573 0.80779769 -0.23069560
v -0.31023781 0.83484446 -0.61765980
v -0.17823067 -0.00708579 -0.63694185
v -0.17602570 -0.02150466 -0.62423269
v -0.25047665 0.78413809 -0.20538933
v -0.43451297 0.86392008 -0.55923103
v -0.28093628 0.77912137 -0.20366109
v -0.41732742 0.88787174 -0.54908401
v -0.29335239 0.82395486 -0.50239238
v -0.21179384 0.77960990 -0.22533912
v -0.13997714 -0.03072297 -0.49785644
v -0.32037796 0.82032698 -0.39644450
v -0.28773230 0.81945168 -0.33339799
v -0.33392974 0.81983416 -0.39965172
v -0.33214166 0.80561769 -0.39438401
v -0.13759752 -0.06740516 -0.50625207
v -0.36081629 0.79232397 -0.30308795
v -0.42556003 0.80691912 -0.49041552
v -0.24642783 0.80150882 -0.33937892
v -0.14798154 0.85109391 -0.25547622
v -0.18435725 -0.04563337 -0.65012788
v -0.41425729 0.85972765 -0.51598280
v -0.33026659 0.83410405 -0.17936643
v -0.38800967 0.83141147 -0.59595531
v -0.34370724 0.79210948 -0.63205930
v -0.42869237 0.74444262 -0.53756239
v -0.32525761 0.81666208 -0.62291348
v -0.16373461 0.71066761 -0.46166136
v -0.21386047 0.79369599 -0.59129895
v -0.23964166 0.75809338 -0.64482575
v -0.25956306 0.76195146 -0.19938933
v -0.39333612 0.75299053 -0.35182957
v -0.13147453 -0.06378333 -0.48261464
v -0.32606943 0.73850243 -0.63839461
v -0.13867964 0.67760193 -0.38007298
v -0.15715318 -0.05462358 -0.50164738
v -0.24989854 0.82967613 -0.63393674
v -0.43739072 0.79568697 -0.57829727
v -0.33608062 0.63345707 -0.21724153
v -0.17312941 -0.02873455 -0.56534279
v -0.38368727 0.70521880 -0.62539455
v -0.31103153 0.72129985 -0.63990632
v -0.43316238 0.74933481 -0.59101958
v -0.17140200 -0.03302432 -0.63746704
v -0.16987551 0.74537268 -0.47289161
v -0.27360957 0.74994436 -0.19971353
v -0.14245156 0.66407818 -0.26120184
v -0.15929237 0.77356418 -0.44353674
v -0.33801111 0.69188192 -0.64551180
v -0.31034539 0.76649536 -0.19708717
v -0.19314745 0.15258714 -0.60593119
v -0.24153803 0.70811023 -0.21569560
v -0.17588844 0.71079187 -0.24059153
v -0.15281634 0.67451687 -0.45537555
v -0.14360649 0.76793894 -0.38121381
v -0.27217245 0.80729034 -0.63662585
v -0.38992924 0.69332715 -0.36060523
v -0.44049115 0.68380411 -0.59339687
v -0.36395327 0.66906196 -0.28458552
v -0.19312809 0.76026205 -0.53996447
v -0.33603587 0.82124032 -0.62413156
v -0.13433277 -0.02822789 -0.48344162
v -0.23346863 0.81160744 -0.63328063
v -0.39095338 0.72958473 -0.35692802
v -0.34770456 0.76047701 -0.63363346
v -0.42859264 0.70952608 -0.53041368
v -0.12890464 0.73872956 -0.26228444
v -0.27808546 0.74420354 -0.20361786
v -0.14470273 0.77532662 -0.24795409
v -0.14484725 -0.02559794 -0.47713454
v -0.41651145 0.73284713 -0.46118178
v -0.18788971 0.72410317 -0.53342387
v -0.37287927 0.79506064 -0.62123491
v -0.43119923 0.78700581 -0.52262609
v -0.12864122 0.65918155 -0.34106736
v -0.12795362 0.68461372 -0.26803800
v -0.41292880 0.80261345 -0.59594967
v -0.23653973 0.77731081 -0.20969356
v -0.18022400 0.09749780 -0.60769682
v -0.14463686 0.72955726 -0.37313962
v -0.18169452 0.00208169 -0.63931932
v -0.20733495 0.67504908 -0.23036584
v -0.16099089 0.68700889 -0.23004574
v -0.42564433 0.66765637 -0.47297201
v -0.36078388 0.80846555 -0.62085510
v -0.32650306 0.69292914 -0.20650623
v -0.40995380 0.70359849 -0.43270611
v -0.16025230 0.70083291 -0.24796310
v -0.22220978 0.74067950 -0.61350782
v -0.36326567 0.75027056 -0.26768761
v -0.13449459 0.75050457 -0.31845861
v -0.33295022 0.74364081 -0.20223608
v -0.38831986 0.70691025 -0.61990948
v -0.35262494 0.69755571 -0.26147278
v -0.37623840 0.82427683 -0.61144760
v -0.20835990 0.74350431 -0.22471395
v -0.13645392 0.02333927 -0.47328587
v -0.24686053 0.70386144 -0.20467850
v -0.29176489 0.59790404 -0.66317790
v -0.14738069 -0.03822895 -0.49823132
v -0.43450751 0.71510593 -0.59523992
v -0.24866785 0.44260021 -0.24903921
v -0.26593941 0.59774515 -0.66142459
v -0.18746852 0.05494947 -0.61268113
v -0.31826434 0.62512858 -0.65541043
v -0.12007984 0.57423711 -0.32027291
v -0.37043538 0.56302051 -0.65141699
v -0.14862476 0.51459053 -0.27596820
v -0.35874366 0.64566069 -0.64668872
v -0.32868989 0.65893151 -0.21146020
v -0.39452629 0.53085719 -0.38446691
v -0.39686996 0.57522110 -0.36897994
v -0.35748073 0.66470679 -0.64725434
v -0.34619371 0.68888759 -0.63779957
v -0.28812394 0.52128396 -0.23215734
v -0.12897617 0.55213611 -0.36926721
v -0.26700998 0.60619084 -0.22259090
v -0.22482992 0.55964103 -0.23400877
v -0.35695253 0.71435827 -0.63210936
v -0.21161931 0.57924119 -0.24142591
v -0.15040148 0.57516713 -0.46791170
v -0.22710620 0.70723084 -0.21272415
v -0.13957877 0.07481692 -0.47832853
v -0.33414060 0.55580450 -0.22657909
v -0.25718147 0.62833075 -0.22185326
v -0.25194420 0.59515600 -0.22411293
v -0.28989108 0.59285237 -0.67559762
v -0.33136261 0.62840140 -0.65267051
v -0.11784324 0.57071190 -0.28743977
v -0.26799422 0.62351919 -0.66239832
v -0.34426217 0.52936290 -0.26308439
v -0.31470243 0.59098446 -0.66957992
v -0.43647660 0.67743332 -0.54329586
v -0.40249188 0.60425458 -0.62911713
v -0.15007232 0.10441563 -0.47822163
v -0.23073210 0.70051780 -0.65293956
v -0.40152615 0.65572181 -0.37527358
v -0.35333582 0.57274862 -0.65452428
v -0.41982695 0.55516615 -0.48381559
v -0.16755212 0.60236118 -0.53206987
v -0.15112326 0.59677512 -0.48079924
v -0.12074925 0.52915815 -0.28942786
v -0.22438841 0.56100320 -0.67285005
v -0.17062817 0.54810977 -0.55677651
v -0.24030514 0.24993789 -0.53154220
v -0.29180816 0.65496254 -0.65334731
v -0.16916768 0.66134354 -0.24926169
v -0.34824074 0.66206777 -0.64538614
v -0.37937251 0.54535080 -0.34113044
v -0.43151646 0.56641548 -0.56392392
v -0.20290663 0.61318094 -0.61652404
v -0.42227450 0.58428260 -0.46159493
v -0.27025479 0.58298761 -0.22838283
v -0.43517581 0.59398634 -0.53705797
v -0.17491320 0.68651968 -0.52478059
v -0.20347869 0.26868279 -0.56512892
v -0.31660232 0.65879872 -0.65400770
v -0.21165110 0.47992427 -0.25073952
v -0.36267983 0.56276638 -0.66172261
v -0.12207043 0.54893392 -0.28595355
v -0.30586605 0.63699804 -0.21375522
v -0.23555589 0.63992959 -0.21952001
v -0.44043083 0.60389727 -0.60584765
v -0.13040536 0.58520308 -0.39711253
v -0.31172743 0.65886474 -0.64772384
v -0.43433514 0.58087700 -0.61392606
v -0.12202332 0.65355191 -0.27472007
v -0.29182532 0.66088640 -0.66037200
v -0.16597479 0.57332999 -0.51862293
v -0.22811199 0.61939180 -0.66675669
v -0.20101616 0.59038895 -0.60686475
v -0.40143372 0.55477595 -0.40794958
v -0.43504277 0.53865369 -0.55918848
v -0.35982867 0.56077267 -0.27796113
v -0.13238547 0.53380318 -0.42041538
v -0.36678492 0.64209685 -0.28161443
v -0.30446738 0.51745995 -0.22974290
v -0.41443321 0.53274896 -0.63411198
v -0.20152056 0.68886539 -0.59471112
v -0.30821500 0.61237822 -0.66112559
v -0.40023592 0.51303080 -0.39223817
v -0.23819522 0.52187421 -0.23313470
v -0.17989726 0.23418191 -0.47251137
v -0.38503905 0.25395263 -0.63104490
v -0.19181190 0.39181783 -0.27525765
v -0.36552927 0.50433314 -0.30301361
v -0.29828498 0.53453176 -0.66242957
v -0.28494231 0.45513170 -0.68200111
v -0.28354919 0.45508071 -0.69032019
v -0.11726075 0.40320678 -0.30869938
v -0.34093518 0.50486079 -0.66438172
v -0.43366202 0.46071210 -0.62628328
v -0.28711416 0.52348900 -0.68515251
v -0.30034531 0.53502885 -0.66853473
v -0.38175677 0.54312237 -0.64618432
v -0.31749551 0.38845273 -0.25067204
v -0.21776208 0.22299677 -0.52024019
v -0.28888902 0.48331996 -0.21957913
v -0.19536076 0.55474218 -0.61504045
v -0.23095013 0.22290667 -0.51502678
v -0.22458749 0.40105777 -0.25488430
v -0.31122634 0.60047798 -0.65606212
v -0.22285385 0.43350715 -0.69084281
v -0.37663781 0.40111813 -0.67128173
v -0.35282090 0.47707136 -0.67722798
v -0.15638760 0.43218415 -0.52171811
v -0.38170827 0.39994433 -0.39339604
v -0.41010511 0.44735606 -0.45175753
v -0.35498463 0.47232927 -0.67370525
v -0.33865131 0.24004535 -0.64494210
v -0.12925156 0.42163466 -0.41293398
v -0.35739299 0.41954614 -0.31108028
v -0.26280279 0.40539069 -0.25324504
v -0.15297069 0.53624988 -0.50741502
v -0.36474794 0.49659995 -0.66702807
v -0.35272196 0.39809803 -0.32028889
v -0.21530889 0.20500642 -0.35864358
v -0.24170927 0.43329531 -0.24630514
v -0.35945699 0.38119699 -0.33049674
v -0.23566962 0.52460429 -0.23531545
v -0.28519375 0.51885195 -0.67370388
v -0.33262106 0.49709353 -0.23546069
v -0.11731841 0.43296669 -0.35387387
v -0.42743146 0.44626892 -0.63511587
v -0.16637551 0.21575005 -0.35254518
v -0.20469607 0.32926191 -0.26810632
v -0.20540558 0.42832916 -0.26269766
v -0.41001671 0.41277226 -0.49506691
v -0.38033827 0.55904813 -0.64773815
v -0.34349272 0.63180558 -0.65218189
v -0.25306626 0.47203437 -0.68542623
v -0.30941322 0.45493044 -0.68514037
v -0.12021953 0.52186850 -0.35464900
v -0.42608845 0.53109524 -0.49385749
v -0.32559846 0.41385898 -0.24717731
v -0.22279708 0.47572184 -0.68482199
v -0.22696346 0.20008015 -0.34626444
v -0.32182180 0.37230527 -0.25487362
v -0.17715929 0.51017967 -0.58068187
v -0.30786093 0.23884822 -0.58279263
v -0.16329193 0.51419865 -0.53363435
v -0.17347102 0.25814901 -0.46478783
v -0.31356646 0.50405064 -0.67325778
v -0.12857043 0.44454093 -0.43009190
v -0.15576681 0.48976904 -0.52708228
v -0.41923057 0.43360685 -0.54893190
v -0.42773851 0.45122818 -0.55739428
v -0.33824500 0.39970847 -0.68136387
v -0.13811494 0.50522400 -0.45828991
v -0.26243624 0.51168469 -0.67353301
v -0.11366524 0.42843742 -0.30630672
v -0.18668740 0.44643936 -0.60550940
v -0.11579645 0.51270824 -0.29549273
v -0.28478456 0.47186742 -0.23968724
v -0.43890717 0.53904049 -0.61447676
v -0.27772628 0.42738072 -0.68679519
v -0.32459159 0.51752853 -0.22950621
v -0.19840678 0.49353392 -0.26122852
v -0.38192888 0.42772117 -0.36836367
v -0.37229720 0.41435195 -0.36110746
v -0.15117535 0.45478291 -0.51700614
v -0.35287921 0.49595534 -0.66464879
v -0.13144294 0.24852255 -0.43545453
v -0.30936494 0.42317422 -0.68301175
v -0.30239329 0.45536998 -0.67790295
v -0.41852606 0.44356033 -0.49807409
v -0.21639591 0.19984927 -0.35239211
v -0.23256246 0.58745664 -0.67080515
v -0.18793986 0.46572722 -0.61675542
v -0.12852223 0.48166313 -0.41542752
v -0.13729516 0.47625227 -0.46170279
v -0.33111467 0.52719743 -0.67005143
v -0.33917832 0.51054882 -0.66743756
v -0.39980035 0.42232757 -0.44751463
v -0.28011293 0.35122592 -0.70862062
v -0.15421462 0.29930178 -0.29999980
v -0.30147935 0.46771305 -0.23784675
v -0.14073909 0.31068610 -0.49495942
v -0.30576449 0.34702522 -0.69414380
v -0.40271345 0.32896126 -0.51321756
v -0.12148698 0.39626681 -0.39776974
v -0.18737641 0.28687804 -0.51401766
v -0.41554222 0.36873917 -0.55145365
v -0.36926699 0.29354217 -0.41071475
v -0.14786598 0.30436484 -0.51159097
v -0.39210604 0.33053716 -0.45993214
v -0.36600148 0.36978479 -0.68105419
v -0.36686187 0.31282058 -0.38819030
v -0.36009339 0.23885300 -0.42673232
v -0.18640359 0.24840378 -0.29019333
v -0.11787976 0.29928003 -0.32109456
v -0.37802467 0.39393105 -0.66839592
v -0.12380693 0.30757375 -0.37827507
v -0.30284218 0.29945891 -0.69886359
v -0.16170708 0.30606424 -0.55953556
v -0.41362128 0.40407744 -0.50283136
v -0.26878579 0.31364420 -0.70486545
v -0.33836596 0.39272646 -0.68662754
v -0.42147898 0.35028887 -0.64085514
v -0.33169574 0.36873940 -0.69138495
v -0.22868133 0.46018165 -0.68837075
v -0.21307824 0.25473158 -0.60488519
v -0.11448950 0.28829115 -0.33015862
v -0.19881823 0.33219344 -0.65126543
v -0.27568612 0.34704459 -0.69907673
v -0.39129860 0.39186190 -0.41492902
v -0.39159492 0.30212323 -0.48549836
v -0.22655085 0.22698131 -0.28553781
v -0.23792813 0.27223965 -0.26631971
v -0.14230967 0.31908938 -0.48511983
v -0.15574145 0.41717823 -0.53916801
v -0.12033378 0.32020347 -0.37947272
v -0.30920126 0.27602055 -0.27413975
v -0.19867474 0.47489120 -0.25955079
v -0.41431527 0.33811445 -0.58120915
v -0.18776410 0.42771879 -0.62223942
v -0.34707925 0.37391461 -0.68614470
v -0.37674784 0.24635773 -0.48295471
v -0.13842864 0.30201171 -0.28976020
v -0.14802259 0.27994039 -0.45651331
v -0.16197784 0.31958044 -0.56402124
v -0.14358015 0.27629211 -0.43399244
v -0.18050240 0.31212649 -0.28824093
v -0.12941167 0.27204164 -0.43481932
v -0.36907534 0.29726853 -0.68682135
v -0.18551979 0.25161303 -0.29464756
v -0.20655090 0.24797162 -0.27830538
v -0.30652288 0.34737370 -0.70425815
v -0.22537972 0.25489920 -0.27317056
v -0.25642058 0.26436803 -0.27177549
v -0.25636362 0.21344875 -0.29746375
v -0.13343902 0.40614359 -0.45738207
v -0.40501262 0.27067209 -0.63211139
v -0.22849294 0.32295602 -0.26024395
v -0.32779623 0.29875718 -0.70190223
v -0.35489410 0.30124239 -0.37323564
v -0.14198565 0.34431545 -0.28194683
v -0.29328712 0.21328903 -0.31306134
v -0.43083077 0.41825895 -0.63174170
v -0.33798575 0.23396830 -0.36471416
v -0.41683770 0.32455055 -0.64568838
v -0.13500578 0.32990020 -0.46570392
v -0.40640080 0.31258520 -0.55811753
v -0.25964574 0.42793038 -0.24787276
v -0.25243079 0.25974272 -0.26914664
v -0.15581620 0.34079804 -0.54132815
v -0.11392839 0.31140051 -0.32381295
v -0.11293950 0.38711508 -0.31257636
v -0.40938967 0.32940323 -0.59022760
v -0.40888890 0.29008461 -0.65490675
v -0.24115328 0.25680574 -0.27156499
v -0.16748636 0.29692874 -0.50604992
v -0.32088313 0.25072254 -0.66166792
v -0.22742939 0.34929184 -0.70052064
v -0.31156047 0.26595786 -0.69184138
v -0.32693625 0.38746212 -0.69128449
v -0.31313796 0.29950255 -0.70179811
v -0.39687964 0.31118102 -0.66808290
v -0.19728133 0.26076182 -0.28306837
v -0.15587592 0.35039835 -0.29314306
v -0.36201658 0.30828575 -0.69366377
v -0.30906755 0.29099954 -0.26736850
v -0.18243760 0.22191191 -0.59647704
v -0.32214451 0.38716639 -0.68794361
v -0.29945751 0.42663491 -0.69607065
v -0.37404550 0.30602816 -0.67991852
v -0.12483960 0.30027491 -0.41302889
v -0.17637645 0.35262319 -0.59865682
v -0.34888006 0.33759108 -0.69676269
v -0.30708309 0.38696586 -0.69781180
v -0.22215919 0.36024780 -0.69803622
v -0.13784862 0.34403125 -0.30230938
v -0.36145717 0.23290098 -0.49049085
v -0.33500882 0.25757822 -0.68102052
v -0.17753818 0.33407083 -0.59384268
v -0.18016370 0.30193278 -0.60936115
v -0.41393951 0.33578420 -0.65271069
v -0.17902907 0.29779450 -0.57497377
v -0.39125431 0.31482130 -0.48971263
v -0.35249983 0.28760216 -0.36648197
v -0.33633740 0.30598546 -0.31440261
v -0.27961462 0.25364580 -0.27075719
v -0.22017690 0.32616264 -0.27147658
v -0.25649169 0.23074633 -0.54000139
v -0.34422835 0.24441045 -0.64870499
v -0.26834115 0.22874319 -0.53726835
v -0.22126525 0.26563654 -0.27921938
v -0.19397100 0.09722887 -0.62338462
v -0.22652768 0.20490182 -0.33630241
v -0.22498303 0.32785807 -0.70470654
v -0.14023021 0.25399047 -0.31277450
v -0.23806754 0.20240234 -0.31450459
v -0.18643495 0.21197327 -0.40934693
v -0.26860827 0.23417317 -0.60706736
v -0.38052891 0.26822347 -0.66641959
v -0.22001617 0.29172883 -0.69547190
v -0.21125240 0.20735934 -0.40508971
v -0.39273684 0.25513231 -0.55354990
v -0.12071197 0.23852182 -0.36524560
v -0.26318780 0.20151021 -0.32899518
v -0.25262355 0.20133858 -0.32782030
v -0.32612336 0.23286231 -0.53892997
v -0.14601199 0.22674132 -0.33527203
v -0.26720440 0.22412825 -0.47446220
v -0.24653003 0.24014178 -0.61380296
v -0.14847585 0.18803580 -0.46777931
v -0.15083483 0.24295765 -0.44000420
v -0.26886560 0.22168632 -0.44959220
v -0.19629839 0.20899883 -0.34484167
v -0.22374229 0.24333003 -0.47659646
v -0.24533453 0.24786627 -0.60426421
v -0.26551232 0.24201102 -0.58380054
v -0.25530063 0.26200438 -0.68054214
v -0.24427171 0.23424718 -0.28024756
v -0.35843721 0.24775137 -0.64509333
v -0.16228738 0.23157991 -0.43106956
v -0.14157608 0.26191026 -0.44350143
v -0.14473627 0.28319983 -0.45160682
v -0.18814808 0.16876780 -0.59619932
v -0.35121509 0.24928855 -0.66252400
v -0.34438937 0.27625223 -0.69275181
v -0.25790455 0.29239561 -0.70361462
v -0.19930481 0.20496849 -0.34563799
v -0.22758694 0.21437334 -0.46939957
v -0.34911988 0.23162900 -0.50971080
v -0.19466514 0.27651010 -0.64154715
v -0.30959901 0.21704148 -0.39543790
v -0.21055001 0.22210068 -0.29261054
v -0.24963331 0.19850478 -0.33698335
v -0.21540842 0.20408666 -0.31546045
v -0.23725833 0.22814597 -0.49677736
v -0.11683322 0.25212026 -0.33743340
v -0.29745687 0.26963083 -0.68809896
v -0.21097927 0.29862550 -0.59864603
v -0.18888692 0.22288172 -0.41567783
v -0.18329210 0.27106951 -0.61281900
v -0.23471635 0.20113429 -0.33548971
v -0.29652280 0.24637805 -0.66007432
v -0.18812888 0.28796026 -0.60005957
v -0.18524910 0.29916075 -0.57991529
v -0.26658339 0.20579218 -0.32494190
v -0.22356254 0.22155706 -0.43584040
v -0.21305787 0.25533705 -0.55066184
v -0.20646013 0.21903507 -0.40776285
v -0.19130263 0.24517164 -0.47497513
v -0.22427738 0.27331794 -0.67718546
v -0.18694629 0.22235602 -0.31182197
v -0.30866556 0.22864773 -0.30065853
v -0.14225495 0.24877286 -0.44169420
v -0.33282739 0.27510511 -0.69148632
v -0.34278217 0.22693879 -0.41452356
v -0.20357189 0.24781840 -0.56662436
v -0.35022126 0.24232252 -0.63354735
v -0.31967847 0.24590300 -0.66952556
v -0.32582804 0.24344881 -0.64899702
v -0.29268086 0.22981648 -0.56770181
v -0.29806926 0.23636852 -0.28072119
v -0.29086903 0.22524289 -0.52199222
v -0.28986954 0.25219696 -0.66391763
v -0.30248797 0.24002728 -0.65071684
v -0.41609342 0.86802033 -0.54610616
v -0.40007692 0.82925829 -0.55213373
v -0.42608147 0.87746812 -0.51961599
v -0.26452968 0.86716876 -0.60120661
v -0.29964220 0.58137823 -0.65462747
v -0.23015461 0.23705352 -0.55105694
v -0.20555569 0.22678216 -0.47022453
v -0.23533165 0.23381759 -0.50697408
v -0.15456253 0.26794787 -0.45168924
v -0.16064499 0.27685625 -0.42634809
v -0.19271614 0.27799555 -0.58216869
v -0.19719871 0.30026566 -0.60061996
v -0.19744422 0.26087888 -0.60078415
f 49 81 100
f 100 81 74
f 136 63 192
f 150 208 18
f 49 100 208
f 19 58 192
f 100 18 208
f 95 58 18
f 18 100 95
f 150 18 58
f 210 49 208
f 192 63 156
f 192 58 136
f 69 100 74
f 175 182 205
f 202 205 251
f 157 228 177
f 219 144 161
f 212 175 177
f 150 58 19
f 255 177 175
f 177 255 294
f 192 156 144
f 182 19 189
f 202 175 205
f 189 144 184
f 228 204 212
f 175 202 255
f 210 208 212
f 192 189 19
f 251 184 219
f 205 182 189
f 228 212 177
f 212 204 210
f 157 177 294
f 189 192 144
f 251 205 184
f 184 144 219
f 270 255 202
f 205 189 184
f 182 208 150
f 150 19 182
f 212 208 182
f 144 156 161
f 212 182 175
f 251 272 202
f 251 219 176
f 230 255 270
f 257 268 291
f 290 230 270
f 202 272 270
f 272 284 268
f 284 272 281
f 294 230 292
f 229 290 257
f 267 304 249
f 340 375 249
f 242 292 249
f 375 242 249
f 294 292 157
f 229 299 304
f 270 257 290
f 267 290 229
f 267 230 290
f 373 268 284
f 299 229 352
f 251 176 281
f 157 292 242
f 272 268 270
f 458 569 456
f 249 304 340
f 291 268 373
f 294 255 230
f 407 436 569
f 352 257 291
f 375 228 242
f 267 292 230
f 257 352 229
f 272 251 281
f 249 292 267
f 268 257 270
f 304 267 229
f 326 299 352
f 499 356 337
f 325 334 378
f 384 365 364
f 491 436 516
f 392 326 384
f 377 326 392
f 334 325 337
f 401 414 457
f 377 378 330
f 337 356 334
f 356 314 334
f 377 330 304
f 334 353 330
f 392 346 325
f 451 302 516
f 384 352 365
f 414 346 364
f 414 424 346
f 424 337 325
f 457 364 342
f 314 353 334
f 365 352 291
f 377 299 326
f 330 340 304
f 352 384 326
f 457 414 364
f 365 310 364
f 342 364 310
f 365 373 310
f 513 302 451
f 384 364 392
f 353 340 330
f 378 377 392
f 378 334 330
f 291 373 365
f 377 304 299
f 346 392 364
f 325 378 392
f 424 325 346
f 424 414 404
f 499 480 356
f 433 417 495
f 566 498 458
f 566 431 498
f 575 480 431
f 497 467 461
f 575 431 566
f 454 406 497
f 480 499 454
f 406 337 424
f 467 433 495
f 497 398 467
f 569 491 545
f 451 516 461
f 499 337 406
f 495 459 467
f 461 467 459
f 406 424 404
f 425 402 497
f 431 480 454
f 468 451 459
f 407 498 402
f 425 497 461
f 398 433 467
f 497 404 398
f 468 459 495
f 498 454 402
f 454 498 431
f 497 406 404
f 457 417 401
f 499 406 454
f 402 425 407
f 404 414 398
f 417 433 401
f 398 401 433
f 398 414 401
f 569 458 407
f 407 425 436
f 497 402 454
f 461 459 451
f 516 425 461
f 458 498 407
f 425 516 436
f 566 456 449
f 456 545 559
f 543 302 533
f 543 491 302
f 491 569 436
f 456 569 545
f 559 449 456
f 545 543 559
f 559 543 520
f 458 456 566
f 543 545 491
f 516 302 491
f 3 75 9
f 166 9 105
f 209 173 24
f 209 24 117
f 9 166 3
f 147 79 75
f 185 209 117
f 172 146 153
f 173 209 198
f 282 172 153
f 153 193 282
f 153 198 194
f 224 193 285
f 190 178 163
f 273 146 172
f 163 166 198
f 146 273 190
f 3 147 75
f 198 209 194
f 207 178 190
f 148 147 207
f 207 147 178
f 146 198 153
f 105 173 166
f 190 273 297
f 193 194 285
f 173 198 166
f 3 166 163
f 207 190 297
f 254 148 207
f 148 181 147
f 146 163 198
f 163 178 3
f 147 3 178
f 269 254 297
f 190 163 146
f 193 153 194
f 194 209 185
f 297 254 207
f 261 386 317
f 287 317 289
f 332 287 293
f 262 317 287
f 297 273 258
f 293 287 239
f 289 269 258
f 259 273 172
f 239 258 259
f 285 247 224
f 289 317 386
f 262 287 332
f 269 297 258
f 288 269 289
f 293 239 234
f 282 234 239
f 261 317 387
f 234 224 278
f 351 260 371
f 386 288 289
f 260 234 278
f 351 293 234
f 260 278 371
f 282 259 172
f 224 282 193
f 259 282 239
f 258 273 259
f 234 282 224
f 351 234 260
f 247 278 224
f 254 269 288
f 289 258 287
f 287 258 239
f 324 370 379
f 367 389 363
f 388 293 351
f 332 293 367
f 324 379 362
f 362 329 324
f 329 362 341
f 399 308 466
f 367 363 359
f 317 357 387
f 357 262 332
f 388 367 293
f 434 321 370
f 370 354 387
f 362 388 341
f 429 324 329
f 371 369 351
f 321 419 370
f 450 329 399
f 308 329 341
f 341 369 308
f 389 367 388
f 357 317 262
f 429 434 324
f 389 379 363
f 332 359 357
f 359 332 367
f 399 329 308
f 369 341 351
f 387 354 261
f 370 419 354
f 389 362 379
f 388 351 341
f 387 357 363
f 387 363 379
f 359 363 357
f 434 370 324
f 429 329 450
f 362 389 388
f 370 387 379
f 489 321 434
f 434 429 464
f 486 434 464
f 489 434 486
f 466 465 399
f 119 116 103
f 149 125 164
f 6 28 81
f 187 27 93
f 216 123 149
f 117 35 27
f 28 141 81
f 49 6 81
f 168 125 6
f 123 53 125
f 149 123 125
f 210 168 6
f 128 70 196
f 187 93 128
f 116 106 141
f 125 186 164
f 28 6 103
f 196 71 123
f 196 70 71
f 196 34 128
f 117 27 187
f 34 196 240
f 170 196 123
f 185 117 187
f 210 6 49
f 168 186 125
f 170 123 216
f 214 128 34
f 214 187 128
f 28 116 141
f 103 116 28
f 244 300 216
f 279 168 204
f 170 240 196
f 243 149 164
f 201 171 265
f 206 265 165
f 165 187 206
f 228 279 204
f 238 200 240
f 216 280 240
f 168 279 186
f 300 280 216
f 170 216 240
f 187 214 171
f 185 165 194
f 235 164 186
f 244 216 149
f 271 235 186
f 285 194 165
f 279 271 186
f 214 34 200
f 206 201 265
f 214 265 171
f 235 243 164
f 187 171 206
f 187 165 185
f 200 34 240
f 210 204 168
f 171 201 206
f 236 240 280
f 149 243 244
f 316 372 233
f 220 336 244
f 338 236 300
f 247 285 278
f 226 165 265
f 276 240 236
f 316 295 395
f 295 279 375
f 295 233 279
f 276 236 319
f 462 235 271
f 336 300 244
f 276 238 240
f 432 200 238
f 300 236 280
f 395 295 375
f 200 432 376
f 235 462 220
f 376 478 226
f 226 214 376
f 242 228 157
f 226 265 214
f 220 243 235
f 331 462 271
f 319 236 338
f 233 271 279
f 375 279 228
f 316 233 295
f 376 214 200
f 244 243 220
f 165 278 285
f 165 226 278
f 233 372 271
f 466 308 369
f 452 338 300
f 466 369 490
f 353 314 375
f 521 550 509
f 319 338 452
f 500 375 314
f 469 336 220
f 478 490 226
f 344 345 276
f 331 271 372
f 432 303 376
f 316 395 372
f 238 276 345
f 490 278 226
f 478 376 303
f 395 331 372
f 452 300 336
f 469 427 336
f 345 432 238
f 371 278 369
f 490 369 278
f 356 500 314
f 448 331 395
f 345 477 432
f 344 477 345
f 353 375 340
f 500 356 480
f 319 344 276
f 395 375 500
f 532 469 463
f 394 490 437
f 441 478 303
f 448 395 500
f 452 505 501
f 445 344 501
f 448 532 463
f 331 448 462
f 462 469 220
f 444 441 408
f 441 394 478
f 437 490 455
f 344 452 501
f 426 532 510
f 532 448 500
f 427 426 447
f 303 408 441
f 509 490 394
f 445 501 505
f 546 426 555
f 546 445 505
f 477 445 546
f 408 432 477
f 447 505 452
f 509 441 444
f 447 452 427
f 409 509 550
f 575 500 480
f 566 449 575
f 532 426 469
f 426 546 505
f 452 344 319
f 408 477 546
f 336 427 452
f 426 505 447
f 448 463 462
f 455 490 478
f 575 532 500
f 477 344 445
f 463 469 462
f 426 427 469
f 408 303 432
f 394 455 478
f 455 394 437
f 409 490 509
f 409 466 490
f 509 394 441
f 565 509 444
f 518 449 559
f 519 510 449
f 565 408 546
f 510 555 426
f 555 507 546
f 548 546 507
f 550 521 517
f 547 555 510
f 541 527 565
f 510 519 547
f 518 559 520
f 521 509 565
f 507 355 548
f 510 532 449
f 555 547 576
f 526 555 576
f 449 532 575
f 355 385 548
f 565 444 408
f 546 548 565
f 449 518 519
f 548 541 565
f 548 385 335
f 534 517 343
f 521 343 517
f 335 541 548
f 522 526 358
f 385 355 574
f 574 522 471
f 522 358 471
f 343 562 553
f 335 504 541
f 578 385 574
f 502 541 504
f 560 502 530
f 358 573 471
f 301 553 585
f 529 523 512
f 531 540 514
f 318 523 315
f 570 529 420
f 318 512 523
f 577 530 556
f 511 318 315
f 542 318 511
f 530 502 556
f 335 385 504
f 542 511 515
f 549 560 530
f 526 522 507
f 531 514 564
f 556 504 578
f 551 531 577
f 343 521 527
f 529 577 531
f 530 577 529
f 502 560 541
f 515 562 549
f 420 564 554
f 511 553 562
f 318 542 512
f 529 512 530
f 555 526 507
f 541 560 527
f 355 507 522
f 574 471 572
f 522 574 355
f 420 531 564
f 534 553 301
f 542 549 512
f 343 553 534
f 549 542 515
f 560 549 562
f 556 502 504
f 565 527 521
f 578 504 385
f 560 562 527
f 585 511 315
f 420 529 531
f 511 562 515
f 530 512 549
f 572 578 574
f 527 562 343
f 136 104 13
f 580 7 23
f 90 96 99
f 88 99 96
f 29 213 142
f 50 25 22
f 111 22 25
f 90 87 96
f 31 29 99
f 22 102 112
f 101 22 112
f 63 92 86
f 31 99 130
f 130 110 31
f 92 115 96
f 580 92 90
f 95 136 58
f 115 13 14
f 14 88 115
f 110 50 101
f 44 114 102
f 25 50 131
f 25 131 67
f 111 10 51
f 92 136 115
f 13 104 14
f 104 136 95
f 90 99 142
f 99 29 142
f 580 90 7
f 96 115 88
f 133 132 88
f 90 92 87
f 92 96 87
f 101 112 29
f 101 29 31
f 88 14 133
f 102 22 44
f 101 31 110
f 22 101 50
f 132 130 99
f 99 88 132
f 22 111 44
f 133 14 104
f 65 133 104
f 111 51 44
f 67 111 25
f 136 13 115
f 131 50 110
f 92 63 136
f 86 92 580
f 579 580 23
f 580 579 86
f 20 53 123
f 69 74 48
f 48 6 53
f 83 10 21
f 53 66 62
f 71 67 131
f 20 123 71
f 20 131 66
f 71 131 20
f 135 100 69
f 65 104 135
f 65 62 132
f 52 62 69
f 48 52 69
f 81 141 74
f 130 66 110
f 53 52 48
f 62 130 132
f 130 62 66
f 65 69 62
f 111 21 10
f 71 21 111
f 53 6 125
f 53 20 66
f 100 135 95
f 135 104 95
f 65 132 133
f 110 66 131
f 69 65 135
f 67 71 111
f 52 53 62
f 154 77 12
f 77 39 15
f 506 15 39
f 154 60 218
f 60 154 42
f 42 188 60
f 15 12 77
f 154 158 77
f 37 222 39
f 42 154 12
f 37 39 77
f 42 12 134
f 524 129 218
f 218 158 154
f 169 39 222
f 222 537 169
f 218 253 524
f 218 60 253
f 525 60 188
f 39 169 506
f 197 537 222
f 590 589 558
f 524 587 438
f 197 558 537
f 506 591 557
f 591 169 589
f 587 60 525
f 537 558 589
f 253 587 524
f 60 587 253
f 591 506 169
f 589 169 537
f 440 588 587
f 535 587 567
f 440 587 535
f 589 557 591
f 590 557 589
f 43 11 16
f 80 120 179
f 109 94 36
f 41 109 36
f 45 109 41
f 41 38 45
f 112 113 120
f 94 120 113
f 109 108 94
f 43 16 127
f 45 582 108
f 120 94 108
f 45 108 109
f 118 113 112
f 127 41 36
f 127 16 41
f 118 112 102
f 113 36 94
f 112 120 80
f 582 45 38
f 195 7 142
f 142 57 195
f 142 7 90
f 156 61 195
f 213 57 142
f 191 213 203
f 112 32 203
f 213 29 112
f 112 203 213
f 183 232 32
f 227 191 203
f 32 237 203
f 211 159 347
f 156 195 161
f 161 195 219
f 225 213 191
f 159 57 213
f 281 176 219
f 159 225 347
f 333 225 191
f 32 232 237
f 213 225 159
f 211 195 57
f 211 57 159
f 195 211 252
f 554 564 544
f 494 422 439
f 422 494 544
f 422 472 493
f 486 493 489
f 472 422 508
f 472 489 493
f 494 439 413
f 514 508 422
f 439 403 413
f 514 422 544
f 422 493 439
f 493 486 464
f 554 544 494
f 514 544 564
f 517 381 485
f 550 421 409
f 460 429 450
f 411 485 428
f 465 411 430
f 517 485 421
f 460 399 430
f 430 399 465
f 411 465 409
f 399 460 450
f 396 428 485
f 517 421 550
f 429 460 464
f 421 411 409
f 396 485 442
f 465 466 409
f 485 381 442
f 485 411 421
f 460 430 411
f 322 313 347
f 322 347 405
f 333 405 225
f 342 410 476
f 342 476 457
f 410 313 322
f 410 296 313
f 225 405 347
f 310 373 342
f 342 296 410
f 342 373 296
f 333 479 405
f 487 333 327
f 495 457 476
f 552 570 420
f 585 528 563
f 586 528 585
f 301 360 534
f 360 563 274
f 529 584 523
f 588 360 400
f 315 584 585
f 274 552 400
f 563 561 274
f 360 274 400
f 301 563 360
f 586 584 263
f 553 511 585
f 570 274 561
f 584 529 570
f 554 552 420
f 570 552 274
f 263 528 586
f 534 360 588
f 315 523 584
f 554 590 552
f 585 584 586
f 539 513 443
f 539 538 513
f 539 479 487
f 468 476 513
f 479 443 405
f 513 484 443
f 443 322 405
f 484 410 322
f 443 484 322
f 484 476 410
f 503 571 538
f 571 533 538
f 457 495 417
f 468 495 476
f 484 513 476
f 539 443 479
f 513 451 468
f 539 492 538
f 533 513 538
f 328 503 538
f 302 513 533
f 328 538 492
f 11 54 55
f 137 11 43
f 54 11 137
f 46 24 55
f 173 105 55
f 55 24 173
f 55 54 46
f 54 17 46
f 137 17 54
f 162 121 122
f 162 158 64
f 15 4 12
f 134 91 97
f 139 4 15
f 199 162 139
f 15 199 139
f 64 91 162
f 91 139 162
f 134 12 91
f 121 162 199
f 97 180 151
f 15 506 199
f 91 12 4
f 162 122 158
f 91 64 97
f 97 129 180
f 91 4 139
f 557 199 506
f 264 283 160
f 264 160 174
f 264 174 248
f 288 386 221
f 261 419 386
f 248 288 221
f 221 217 248
f 221 583 217
f 217 264 248
f 368 583 221
f 368 305 583
f 221 386 368
f 368 386 419
f 306 339 349
f 339 305 368
f 261 354 419
f 349 368 419
f 349 339 368
f 518 571 503
f 518 520 571
f 571 520 533
f 576 328 573
f 573 358 576
f 547 328 576
f 519 518 503
f 520 543 533
f 503 328 547
f 576 358 526
f 503 547 519
f 413 403 470
f 396 442 403
f 438 400 470
f 438 442 536
f 413 470 496
f 496 400 552
f 403 442 470
f 588 400 438
f 536 442 440
f 588 440 442
f 496 558 494
f 442 381 588
f 413 496 494
f 400 496 470
f 438 470 442
f 534 588 381
f 534 381 517
f 438 587 588
f 97 151 134
f 37 77 158
f 134 151 42
f 97 158 218
f 122 222 37
f 158 122 37
f 97 218 129
f 97 64 158
f 151 180 215
f 151 188 42
f 151 215 188
f 215 567 525
f 122 197 222
f 188 215 525
f 525 567 587
f 112 80 32
f 145 179 120
f 174 120 155
f 32 143 183
f 174 145 120
f 80 143 32
f 179 143 80
f 160 145 174
f 167 143 246
f 246 143 179
f 348 266 183
f 152 179 145
f 167 183 143
f 129 524 241
f 129 241 180
f 215 180 567
f 535 536 440
f 536 535 180
f 535 567 180
f 524 438 536
f 180 241 536
f 536 241 524
f 199 557 121
f 121 481 197
f 197 122 121
f 197 481 558
f 558 496 552
f 557 558 481
f 590 494 558
f 121 557 481
f 590 558 557
f 590 558 552
f 17 78 72
f 17 59 89
f 70 89 83
f 21 71 83
f 128 78 70
f 89 78 17
f 70 78 89
f 70 83 71
f 56 26 84
f 120 108 155
f 155 47 181
f 108 47 155
f 98 108 582
f 98 582 26
f 82 26 582
f 108 98 47
f 26 82 84
f 84 38 56
f 582 38 82
f 84 82 38
f 475 412 551
f 473 568 453
f 471 568 572
f 572 473 556
f 568 539 418
f 568 418 453
f 453 418 475
f 539 435 418
f 475 397 412
f 453 475 473
f 573 539 471
f 473 475 551
f 577 556 473
f 473 551 577
f 568 471 539
f 568 473 572
f 531 551 540
f 578 572 556
f 419 321 489
f 415 393 374
f 423 393 415
f 393 483 374
f 374 349 415
f 349 419 415
f 472 508 419
f 489 472 419
f 423 446 393
f 397 446 423
f 250 245 311
f 250 275 245
f 245 275 286
f 350 250 311
f 307 350 311
f 76 9 75
f 79 41 75
f 76 75 41
f 105 9 55
f 16 76 41
f 76 11 55
f 55 9 76
f 79 47 38
f 79 38 41
f 76 16 11
f 296 252 313
f 296 373 284
f 288 248 174
f 419 508 415
f 540 415 508
f 540 412 415
f 540 508 514
f 415 397 423
f 412 397 415
f 540 551 412
f 361 246 223
f 361 223 320
f 361 482 246
f 382 320 383
f 383 320 312
f 482 390 246
f 382 361 320
f 78 128 93
f 46 72 33
f 33 72 78
f 93 33 78
f 493 428 439
f 464 460 493
f 439 396 403
f 428 396 439
f 428 493 460
f 460 411 428
f 264 217 286
f 245 286 217
f 307 311 339
f 306 307 339
f 583 245 217
f 305 339 311
f 311 583 305
f 245 583 311
f 114 5 118
f 5 59 118
f 44 51 114
f 118 102 114
f 59 113 118
f 181 79 147
f 155 181 148
f 174 155 148
f 174 148 254
f 288 174 254
f 570 561 584
f 584 561 263
f 301 585 563
f 563 263 561
f 528 263 563
f 27 107 68
f 68 107 138
f 73 68 8
f 138 33 30
f 138 107 35
f 73 27 68
f 390 416 348
f 382 482 361
f 390 474 416
f 474 390 482
f 382 488 482
f 418 435 416
f 581 126 124
f 7 124 40
f 40 126 2
f 7 40 23
f 40 124 126
f 195 296 219
f 281 296 284
f 195 252 296
f 219 296 281
f 35 46 33
f 35 107 27
f 33 138 35
f 17 72 46
f 46 35 24
f 24 35 117
f 7 195 61
f 156 63 61
f 137 59 17
f 127 36 113
f 127 113 59
f 127 59 43
f 43 59 137
f 61 124 7
f 63 86 61
f 61 86 124
f 124 86 581
f 393 488 483
f 327 333 227
f 231 203 237
f 323 231 256
f 256 231 237
f 374 306 349
f 374 483 382
f 374 383 306
f 382 383 374
f 397 418 488
f 475 418 397
f 479 333 487
f 277 323 487
f 435 487 323
f 487 435 539
f 573 328 492
f 492 539 573
f 250 312 298
f 383 350 306
f 350 307 306
f 383 312 350
f 312 250 350
f 85 141 106
f 74 141 85
f 89 59 5
f 83 89 5
f 74 119 48
f 85 119 74
f 138 30 1
f 68 138 1
f 313 211 347
f 211 313 252
f 391 266 348
f 416 391 348
f 93 1 30
f 30 33 93
f 277 227 231
f 327 227 277
f 446 488 393
f 38 98 84
f 84 26 56
f 56 38 84
f 26 84 98
f 106 119 85
f 106 116 119
f 277 487 327
f 8 68 93
f 8 93 73
f 152 223 246
f 390 167 246
f 181 47 79
f 38 47 98
f 418 416 474
f 418 474 482
f 482 488 418
f 482 474 488
f 366 380 309
f 309 391 366
f 283 223 152
f 152 246 179
f 554 494 590
f 152 145 160
f 283 152 160
f 309 232 391
f 40 2 23
f 391 416 366
f 416 435 366
f 27 73 93
f 283 286 275
f 264 286 283
f 298 283 275
f 93 68 1
f 323 277 231
f 48 119 6
f 6 119 103
f 579 581 86
f 581 579 140
f 380 256 309
f 232 309 256
f 256 237 232
f 579 2 140
f 348 183 167
f 390 348 167
f 435 256 380
f 323 256 435
f 333 191 227
f 5 114 83
f 298 312 320
f 2 126 581
f 10 114 51
f 298 275 250
f 140 2 581
f 83 114 10
f 266 348 183
f 223 283 320
f 320 283 298
f 231 227 203
f 2 579 23
f 488 446 397
f 391 232 348
f 483 488 382
f 391 348 266
f 435 380 366
f 474 482 488
f 348 232 183

